G04*
G04 #@! TF.GenerationSoftware,Altium Limited,Altium Designer,18.0.7 (293)*
G04*
G04 Layer_Physical_Order=2*
G04 Layer_Color=16711680*
%FSLAX44Y44*%
%MOMM*%
G71*
G01*
G75*
%ADD22C,0.7000*%
%ADD23C,1.5240*%
%ADD24O,2.0000X1.5000*%
%ADD25R,2.0000X1.5000*%
%ADD26R,2.0000X1.7000*%
%ADD27O,2.0000X1.7000*%
%ADD28O,1.7000X2.0000*%
%ADD29R,1.7000X2.0000*%
%ADD30O,1.5240X2.0000*%
%ADD31R,1.5240X2.0000*%
%ADD32C,2.5000*%
D22*
X509270Y356870D02*
Y458470D01*
X472440Y495300D02*
X509270Y458470D01*
X642366Y562610D02*
X720090Y484886D01*
X425450Y562610D02*
X642366D01*
X720090Y306070D02*
Y484886D01*
X373380Y510540D02*
X425450Y562610D01*
X718820Y306070D02*
X720090D01*
X764540D01*
X774700Y295910D01*
Y275590D02*
Y295910D01*
Y275590D02*
X774700Y275590D01*
X494980Y140970D02*
X509270Y155260D01*
X173990Y159070D02*
X414970Y159070D01*
X104140Y417830D02*
Y480822D01*
X143510Y162560D02*
X173990D01*
X433070Y140970D02*
X494980D01*
X414970Y159070D02*
X433070Y140970D01*
X373380Y495300D02*
Y510540D01*
X173990Y162560D02*
X176530Y165100D01*
X78740Y227330D02*
X143510Y162560D01*
X78740Y369570D02*
X104140Y394970D01*
X78740Y227330D02*
Y369570D01*
X173990Y212090D02*
Y292100D01*
X128270Y337820D02*
X173990Y292100D01*
X440690Y307340D02*
X509270D01*
X173990Y186690D02*
X320040D01*
X440690Y307340D01*
X424180Y495300D02*
X472440D01*
X462280Y331470D02*
X509270D01*
X435610Y358140D02*
X462280Y331470D01*
X720090Y155260D02*
Y219710D01*
X509270Y155260D02*
X720090D01*
X509270D02*
Y204470D01*
X626110Y184150D02*
Y215900D01*
X612140Y229870D02*
X626110Y215900D01*
X509270Y229870D02*
X612140D01*
X509270Y256540D02*
X718820Y256540D01*
X510540Y281940D02*
X718820Y281940D01*
X104140Y394970D02*
Y414020D01*
X102870Y417830D02*
X104140D01*
Y480822D02*
X118618Y495300D01*
X774700Y151130D02*
Y275590D01*
X709930Y86360D02*
X774700Y151130D01*
X624840Y111760D02*
Y128270D01*
Y111760D02*
X650240Y86360D01*
X118618Y495300D02*
X347980D01*
X179070Y389890D02*
Y417830D01*
Y389890D02*
X210820Y358140D01*
X435610D01*
X128270Y337820D02*
Y417830D01*
Y427736D01*
X167894Y467360D01*
X360680D01*
X373380Y480060D01*
Y495300D01*
X650240Y86360D02*
X709930D01*
D23*
X50000Y559600D02*
D03*
X781850Y50000D02*
D03*
Y559600D02*
D03*
X50000Y50000D02*
D03*
D24*
X509270Y356870D02*
D03*
Y331470D02*
D03*
Y306070D02*
D03*
Y280670D02*
D03*
Y229870D02*
D03*
Y255270D02*
D03*
D25*
Y204470D02*
D03*
D26*
X718820Y229870D02*
D03*
D27*
Y255270D02*
D03*
Y280670D02*
D03*
Y306070D02*
D03*
D28*
X173990Y186690D02*
D03*
Y212090D02*
D03*
D29*
Y161290D02*
D03*
D30*
X179070Y417830D02*
D03*
X153670D02*
D03*
X128270D02*
D03*
X424180Y495300D02*
D03*
X398780D02*
D03*
X373380D02*
D03*
D31*
X102870Y417830D02*
D03*
X347980Y495300D02*
D03*
D32*
X626110Y133350D02*
D03*
Y184150D02*
D03*
M02*
