M48
;Layer_Color=9474304
;FILE_FORMAT=4:4
METRIC,LZ
;TYPE=PLATED
T1F00S00C0.7000
T2F00S00C0.9000
T3F00S00C5.0000
%
T01
X0071882Y0022987
Y0025527
Y0028067
Y0030607
X0050927
Y0028067
Y0025527
Y0022987
Y0020447
X0017399Y0021209
Y0018669
Y0016129
X0010287Y0041783
X0012827
X0015367
X0017907
X0034798Y004953
X0037338
X0039878
X0042418
X0050927Y0035687
Y0033147
T02
X0062611Y0013335
Y0018415
T03
X0078185Y0005
X0005
Y005596
X0078185
M30
