G04*
G04 #@! TF.GenerationSoftware,Altium Limited,Altium Designer,18.0.7 (293)*
G04*
G04 Layer_Color=128*
%FSLAX44Y44*%
%MOMM*%
G71*
G01*
G75*
%ADD33C,0.0508*%
D33*
X25000Y559600D02*
X75000D01*
X50000Y534600D02*
Y584600D01*
X756850Y50000D02*
X806850D01*
X781850Y25000D02*
Y75000D01*
X756850Y559600D02*
X806850D01*
X781850Y534600D02*
Y584600D01*
X25000Y50000D02*
X75000D01*
X50000Y25000D02*
Y75000D01*
X505770Y356870D02*
X512770D01*
X509270Y353370D02*
Y360370D01*
X505770Y331470D02*
X512770D01*
X509270Y327970D02*
Y334970D01*
X505770Y306070D02*
X512770D01*
X509270Y302570D02*
Y309570D01*
X505770Y280670D02*
X512770D01*
X509270Y277170D02*
Y284170D01*
X505770Y229870D02*
X512770D01*
X509270Y226370D02*
Y233370D01*
X505770Y204470D02*
X512770D01*
X509270Y200970D02*
Y207970D01*
X505770Y255270D02*
X512770D01*
X509270Y251770D02*
Y258770D01*
X715320Y229870D02*
X722320D01*
X718820Y226370D02*
Y233370D01*
X715320Y255270D02*
X722320D01*
X718820Y251770D02*
Y258770D01*
X715320Y280670D02*
X722320D01*
X718820Y277170D02*
Y284170D01*
X715320Y306070D02*
X722320D01*
X718820Y302570D02*
Y309570D01*
X170490Y186690D02*
X177490D01*
X173990Y183190D02*
Y190190D01*
X170490Y161290D02*
X177490D01*
X173990Y157790D02*
Y164790D01*
X170490Y212090D02*
X177490D01*
X173990Y208590D02*
Y215590D01*
X175570Y417830D02*
X182570D01*
X179070Y414330D02*
Y421330D01*
X99370Y417830D02*
X106370D01*
X102870Y414330D02*
Y421330D01*
X150170Y417830D02*
X157170D01*
X153670Y414330D02*
Y421330D01*
X124770Y417830D02*
X131770D01*
X128270Y414330D02*
Y421330D01*
X420680Y495300D02*
X427680D01*
X424180Y491800D02*
Y498800D01*
X344480Y495300D02*
X351480D01*
X347980Y491800D02*
Y498800D01*
X395280Y495300D02*
X402280D01*
X398780Y491800D02*
Y498800D01*
X369880Y495300D02*
X376880D01*
X373380Y491800D02*
Y498800D01*
X621610Y133350D02*
X630610D01*
X626110Y128850D02*
Y137850D01*
X621610Y184150D02*
X630610D01*
X626110Y179650D02*
Y188650D01*
M02*
