G04*
G04 #@! TF.GenerationSoftware,Altium Limited,Altium Designer,18.0.7 (293)*
G04*
G04 Layer_Physical_Order=1*
G04 Layer_Color=255*
%FSLAX44Y44*%
%MOMM*%
G71*
G01*
G75*
%ADD31C,0.5000*%
%ADD32C,11.0000*%
%ADD33C,6.0000*%
%ADD34R,1.5000X2.2500*%
%ADD35O,1.5000X2.2500*%
%ADD36O,1.5240X2.2500*%
%ADD37R,2.2500X1.5000*%
%ADD38O,2.2500X1.5000*%
%ADD39O,2.2500X1.4000*%
%ADD40O,2.0000X1.5000*%
%ADD41R,2.0000X1.5000*%
%ADD42R,1.5000X2.0000*%
%ADD43O,1.5000X2.0000*%
%ADD44O,1.2000X2.2500*%
%ADD45C,1.5000*%
%ADD46R,2.0000X2.0000*%
%ADD47C,2.0000*%
%ADD48C,1.7000*%
%ADD49C,2.2500*%
D31*
X938370Y952660D02*
X969010Y922020D01*
X269080Y952660D02*
X938370D01*
X1070450Y851060D02*
X1200151Y721360D01*
X1065416Y851060D02*
X1070450D01*
X1200151Y721360D02*
X1261110Y721360D01*
X1032350Y851060D02*
X1198880Y684530D01*
X1268730D01*
X1188720Y670560D02*
X1245870D01*
X1108075Y751205D02*
X1188720Y670560D01*
X1092835Y751205D02*
X1108075D01*
X1019810Y824230D02*
X1092835Y751205D01*
X1019810Y824230D02*
Y863600D01*
X1032350Y851060D02*
Y976470D01*
X943610Y889000D02*
Y915670D01*
X932020Y927260D02*
X943610Y915670D01*
X222090Y927260D02*
X932020D01*
X969010Y889000D02*
Y922020D01*
X1173480Y1143000D02*
X1223010D01*
X1073150Y1243330D02*
X1173480Y1143000D01*
X1073150Y1243330D02*
Y1921510D01*
X1148080Y1117600D02*
X1223010D01*
X1047750Y1217930D02*
X1148080Y1117600D01*
X1047750Y1217930D02*
Y1921510D01*
X781050Y1097280D02*
Y1297940D01*
X782320Y1299210D01*
X781050Y1300480D02*
X782320Y1299210D01*
X1247767Y643263D02*
Y645803D01*
X1234440Y659130D02*
X1247767Y645803D01*
X1163320Y659130D02*
X1234440D01*
X1245870Y670560D02*
X1275080Y641350D01*
X994410Y828040D02*
X1163320Y659130D01*
X1309210Y1001870D02*
Y1064420D01*
X1276190Y968850D02*
X1309210Y1001870D01*
X1226660Y968850D02*
X1276190D01*
X1273810Y1010920D02*
Y1046091D01*
X1253490Y990600D02*
X1273810Y1010920D01*
X1223010Y990600D02*
X1253490D01*
X1281430Y1079500D02*
X1294130D01*
X1309210Y1064420D01*
X1281270Y1079660D02*
X1281430Y1079500D01*
X145890Y1079660D02*
X1281270D01*
X1265641Y1054260D02*
X1273810Y1046091D01*
X145890Y1054260D02*
X1265641D01*
X1032350Y976470D02*
X1095461Y1039581D01*
X1221191D01*
X1223010Y1041400D01*
X1220470Y1018540D02*
X1223010Y1016000D01*
X1117600Y1018540D02*
X1220470D01*
X1057910Y958850D02*
X1117600Y1018540D01*
X1057910Y868954D02*
Y958850D01*
X1325880Y618490D02*
Y641350D01*
X1318260Y610870D02*
X1325880Y618490D01*
X1296670Y610870D02*
X1318260D01*
X1287780Y619760D02*
X1296670Y610870D01*
X1287780Y619760D02*
Y665480D01*
X1268730Y684530D02*
X1287780Y665480D01*
X1300480Y681990D02*
X1300480Y641350D01*
X1261110Y721360D02*
X1300480Y681990D01*
X1057910Y868954D02*
X1058070Y868794D01*
X1968111Y233680D02*
X1969770Y235339D01*
X1247767Y643263D02*
X1249680Y641350D01*
X1058070Y858406D02*
X1065416Y851060D01*
X1830070Y346710D02*
Y713740D01*
X1781810Y762000D02*
X1830070Y713740D01*
X1197610Y762000D02*
X1781810D01*
X1804670Y346710D02*
Y694690D01*
X1198880Y742950D02*
X1756410D01*
X1804670Y694690D01*
X1080027Y861803D02*
X1198880Y742950D01*
X1428294Y726440D02*
X1723390D01*
X1786890Y662940D01*
Y354639D02*
Y662940D01*
X1422400Y722630D02*
X1424484D01*
X1428294Y726440D01*
X1779270Y347019D02*
X1786890Y354639D01*
X1779270Y346710D02*
Y347019D01*
X1096010Y863600D02*
X1197610Y762000D01*
X1121410Y863600D02*
X1203960Y781050D01*
X1789430D02*
X1855470Y715010D01*
X1203960Y781050D02*
X1789430D01*
X1146810Y863600D02*
X1209040Y801370D01*
X1791970D02*
X1880870Y712470D01*
X1209040Y801370D02*
X1791970D01*
X1790700Y825500D02*
X1906270Y709930D01*
X1210310Y825500D02*
X1790700D01*
X1172210Y863600D02*
X1210310Y825500D01*
X1811020Y842010D02*
X1931670Y721360D01*
X1197610Y863600D02*
X1219200Y842010D01*
X1811020D01*
X722630Y1371600D02*
X740410D01*
X661670Y1310640D02*
X722630Y1371600D01*
X386080Y1310640D02*
X661670D01*
X257810Y1182370D02*
X386080Y1310640D01*
X144780Y1182370D02*
X257810D01*
X1224280Y641350D02*
X1631950Y233680D01*
X144780Y1106170D02*
Y1131570D01*
Y1055370D02*
X145890Y1054260D01*
X781050Y1300480D02*
X1022350Y1541780D01*
Y1921510D01*
X144780Y1080770D02*
X145890Y1079660D01*
X628650Y732790D02*
X1036320D01*
X627380Y731520D02*
X628650Y732790D01*
X1123950Y1921510D02*
X1143000Y1902460D01*
Y1788160D02*
Y1902460D01*
X292100Y1168400D02*
X740410D01*
X276860Y1153160D02*
X292100Y1168400D01*
X1906270Y346710D02*
Y709930D01*
X1880870Y346710D02*
Y712470D01*
X1931670Y346710D02*
Y721360D01*
X1223010Y965200D02*
X1226660Y968850D01*
X996950Y1551940D02*
Y1921510D01*
X740410Y1295400D02*
X996950Y1551940D01*
X971550D02*
Y1921510D01*
X740410Y1320800D02*
X971550Y1551940D01*
X1631950Y233680D02*
X1968111D01*
X1198880Y641350D02*
X1224280D01*
X1072407Y861803D02*
X1080027D01*
X1070610Y863600D02*
X1072407Y861803D01*
X1058070Y858406D02*
Y868794D01*
X1855470Y346710D02*
Y715010D01*
X1969770Y235339D02*
Y741680D01*
X1841500Y869950D02*
X1969770Y741680D01*
X1841500Y869950D02*
Y895350D01*
Y1022350D02*
Y1047750D01*
X1036320Y732790D02*
X1127760Y641350D01*
X1300480D02*
Y643959D01*
X1127760Y641350D02*
X1148080D01*
X1173480D01*
X994410Y828040D02*
Y863600D01*
X1197610Y889000D02*
X1254760Y946150D01*
X1841500D01*
X1260000Y876460D02*
X1304290Y920750D01*
X1841500D01*
X1172210Y889000D02*
X1184750Y876460D01*
X1260000D01*
X191770Y1029970D02*
X269080Y952660D01*
X144780Y1004570D02*
X222090Y927260D01*
X144780Y1029970D02*
X191770D01*
X144780Y1156970D02*
Y1182370D01*
X1223010Y1219200D02*
X1565910D01*
X1813560Y971550D01*
X1841500D01*
X1223010Y1244600D02*
X1568450D01*
X1816100Y996950D02*
X1841500D01*
X1568450Y1244600D02*
X1816100Y996950D01*
X1736090Y1153160D02*
X1841500Y1047750D01*
X1736090Y1153160D02*
Y1309370D01*
D32*
X1900250Y100000D02*
D03*
X100000D02*
D03*
D33*
X781850Y1950250D02*
D03*
X50000D02*
D03*
D34*
X1325880Y641350D02*
D03*
X1123950Y1921510D02*
D03*
X1931670Y346710D02*
D03*
D35*
X1300480Y641350D02*
D03*
X1275080D02*
D03*
X1249680D02*
D03*
X1224280D02*
D03*
X1198880D02*
D03*
X1173480D02*
D03*
X1148080D02*
D03*
X971550Y1921510D02*
D03*
X996950D02*
D03*
X1022350D02*
D03*
X1047750D02*
D03*
X1073150D02*
D03*
X1098550D02*
D03*
X994410Y863600D02*
D03*
X969010D02*
D03*
X943610D02*
D03*
X918210D02*
D03*
X892810D02*
D03*
X867410D02*
D03*
X842010D02*
D03*
X816610D02*
D03*
Y889000D02*
D03*
X842010D02*
D03*
X867410D02*
D03*
X892810D02*
D03*
X918210D02*
D03*
X943610D02*
D03*
X969010D02*
D03*
X994410D02*
D03*
X1906270Y346710D02*
D03*
X1880870D02*
D03*
X1855470D02*
D03*
X1830070D02*
D03*
X1804670D02*
D03*
X1779270D02*
D03*
X1753870D02*
D03*
D36*
X1469390Y1377950D02*
D03*
X1494790D02*
D03*
X1520190D02*
D03*
X1545590D02*
D03*
X1583690D02*
D03*
X1609090D02*
D03*
X1736090D02*
D03*
X1415190Y1855950D02*
D03*
X1440590D02*
D03*
X1465990D02*
D03*
X1491390D02*
D03*
X1567590D02*
D03*
X1592990D02*
D03*
X1618390D02*
D03*
X208280Y1856740D02*
D03*
X335280D02*
D03*
X360680D02*
D03*
X398780D02*
D03*
X424180D02*
D03*
X449580D02*
D03*
X474980D02*
D03*
X325980Y1378740D02*
D03*
X351380D02*
D03*
X376780D02*
D03*
X452980D02*
D03*
X478380D02*
D03*
X503780D02*
D03*
X529180D02*
D03*
X888140Y638020D02*
D03*
X862740D02*
D03*
X837340D02*
D03*
X811940D02*
D03*
X773840D02*
D03*
X748440D02*
D03*
X621440D02*
D03*
X739140Y160020D02*
D03*
X764540D02*
D03*
X789940D02*
D03*
X866140D02*
D03*
X891540D02*
D03*
X916940D02*
D03*
X942340D02*
D03*
D37*
X1223010Y965200D02*
D03*
Y1193800D02*
D03*
Y1409700D02*
D03*
X1841500Y1047750D02*
D03*
X144780Y1182370D02*
D03*
D38*
X1223010Y990600D02*
D03*
Y1016000D02*
D03*
Y1092200D02*
D03*
Y1117600D02*
D03*
Y1143000D02*
D03*
Y1219200D02*
D03*
Y1244600D02*
D03*
Y1270000D02*
D03*
Y1295400D02*
D03*
Y1320800D02*
D03*
Y1346200D02*
D03*
Y1371600D02*
D03*
Y1435100D02*
D03*
Y1460500D02*
D03*
Y1485900D02*
D03*
Y1511300D02*
D03*
Y1536700D02*
D03*
Y1562100D02*
D03*
Y1587500D02*
D03*
X1841500Y1022350D02*
D03*
Y996950D02*
D03*
Y971550D02*
D03*
Y946150D02*
D03*
Y920750D02*
D03*
Y895350D02*
D03*
Y869950D02*
D03*
X144780Y1156970D02*
D03*
Y1131570D02*
D03*
Y1106170D02*
D03*
Y1080770D02*
D03*
Y1055370D02*
D03*
Y1029970D02*
D03*
Y1004570D02*
D03*
D39*
X1223010Y1041400D02*
D03*
Y1066800D02*
D03*
D40*
X740410Y1498600D02*
D03*
Y1473200D02*
D03*
Y1447800D02*
D03*
Y1422400D02*
D03*
Y1397000D02*
D03*
Y1320800D02*
D03*
Y1295400D02*
D03*
Y1270000D02*
D03*
Y1244600D02*
D03*
Y1219200D02*
D03*
Y1193800D02*
D03*
Y1168400D02*
D03*
Y1092200D02*
D03*
Y1066800D02*
D03*
Y1041400D02*
D03*
Y1016000D02*
D03*
Y990600D02*
D03*
Y965200D02*
D03*
Y939800D02*
D03*
D41*
Y1371600D02*
D03*
Y1143000D02*
D03*
Y914400D02*
D03*
D42*
X791210Y863600D02*
D03*
D43*
Y889000D02*
D03*
X1045210Y863600D02*
D03*
Y889000D02*
D03*
D44*
X1019810D02*
D03*
Y863600D02*
D03*
D45*
X1070610Y889000D02*
D03*
Y863600D02*
D03*
X1096010D02*
D03*
Y889000D02*
D03*
X1121410D02*
D03*
Y863600D02*
D03*
X1146810D02*
D03*
Y889000D02*
D03*
X1172210D02*
D03*
Y863600D02*
D03*
X1197610D02*
D03*
Y889000D02*
D03*
X1223010D02*
D03*
Y863600D02*
D03*
D46*
X1343660Y297180D02*
D03*
X1181100Y298450D02*
D03*
D47*
X1318260Y297180D02*
D03*
X1155700Y298450D02*
D03*
D48*
X781050Y1097280D02*
D03*
D49*
X1736090Y1309370D02*
D03*
X276860Y1153160D02*
D03*
X1422400Y722630D02*
D03*
X627380Y731520D02*
D03*
X1143000Y1788160D02*
D03*
M02*
