M48
;Layer_Color=9474304
;FILE_FORMAT=4:4
METRIC,LZ
;TYPE=PLATED
T1F00S00C0.1000
T2F00S00C0.7000
T3F00S00C0.9000
T4F00S00C5.0000
T5F00S00C10.0000
%
T01
X0068834Y0016002
X0071374
X0081534
X0096774
X0099314
X0098974Y0063802
X0096434
X0093894
X0091354
X0072304
X0069764
X0067224
X0064684
X0059604
X0163449Y0137795
X0165989
X0168529
X0171069
X0176149
X0144399
X0141859
X0139319
X0136779
X0057998Y0137874
X0055458
X0040218
X0030058
X0027518
X0028448Y0185674
X0025908
X0023368
X0018288
X0030988
X0050038
X0052578
X0055118
X0057658
X0136439Y0185595
X0138979
X0154219
X0164379
X0166919
T02
X0073914Y0016002
X0076454
X0078994
X0086614
X0089154
X0091694
X0094234
X0175387Y0034671
X0177927
X0180467
X0183007
X0185547
X0188087
X0190627
X0193167
X014224Y0072263
X0132588Y0064135
X0130048
X0127508
X0124968
X0122428
X0119888
X0117348
X0114808
X0088814Y0063802
X0086274
X0083734
X0081194
X0077384
X0074844
X0062144
X0062738Y0073152
X0014478Y0100457
Y0102997
Y0105537
Y0108077
Y0110617
Y0113157
Y0115697
Y0118237
X0027686Y0115316
X0074041Y01143
Y011684
Y010922
Y010668
Y010414
Y01016
Y009906
Y009652
Y009398
Y009144
X0079121Y00889
Y008636
X0078105Y0109728
X0081661Y00889
Y008636
X0084201
X0086741
X0089281
X0091821
X0094361
X0096901
X0099441
Y00889
X0096901
X0094361
X0091821
X0089281
X0086741
X0084201
X0101981
Y008636
X0104521
Y00889
X0107061
Y008636
X0109601
Y00889
X0112141
Y008636
X0114681
Y00889
X0117221
Y008636
X0119761
Y00889
X0122301
Y008636
Y009652
Y009906
Y01016
Y010414
Y010668
Y010922
Y011176
Y01143
X018415Y0104775
Y0102235
Y0099695
Y0097155
Y0094615
Y0092075
Y0089535
Y0086995
X0173609Y0130937
Y0137795
X0160909
X0158369
X0154559
X0152019
X0149479
X0146939
X0122301Y013716
Y013462
Y013208
Y012954
Y0127
Y012446
Y012192
Y011938
Y014097
Y014351
Y014605
Y014859
Y015113
Y015367
Y015621
X0074041Y014986
Y014732
Y014478
Y014224
Y01397
Y013716
Y013208
Y012954
Y0127
Y012446
Y012192
Y011938
X0052918Y0137874
X0050378
X0047838
X0045298
X0037678
X0035138
X0032598
X0033528Y0185674
X0036068
X0020828
X0039878
X0042418
X0044958
X0047498
X0097155Y0192151
X0099695
X0102235
X0104775
X0107315
X0109855
X0112395
X01143Y0178816
X0122301Y015875
X0141519Y0185595
X0144059
X0146599
X0149139
X0156759
X0159299
X0161839
T03
X011557Y0029845
X011811
X0131826Y0029718
X0134366
T04
X0005Y0195025
X0078185
T05
X001Y001
X0190025
M30
