G04*
G04 #@! TF.GenerationSoftware,Altium Limited,Altium Designer,18.0.7 (293)*
G04*
G04 Layer_Color=2752767*
%FSLAX44Y44*%
%MOMM*%
G71*
G01*
G75*
%ADD50C,0.0508*%
%ADD51C,0.0677*%
D50*
X1898218Y97968D02*
Y102032D01*
X1902282D01*
Y97968D01*
X1898218D01*
X97968D02*
Y102032D01*
X102032D01*
Y97968D01*
X97968D01*
X1325880Y639318D02*
X1323848Y643382D01*
X1327912D01*
X1325880Y639318D01*
X1300480D02*
X1298448Y643382D01*
X1302512D01*
X1300480Y639318D01*
X1275080D02*
X1273048Y643382D01*
X1277112D01*
X1275080Y639318D01*
X1249680D02*
X1247648Y643382D01*
X1251712D01*
X1249680Y639318D01*
X1224280D02*
X1222248Y643382D01*
X1226312D01*
X1224280Y639318D01*
X1198880D02*
X1196848Y643382D01*
X1200912D01*
X1198880Y639318D01*
X1173480D02*
X1171448Y643382D01*
X1175512D01*
X1173480Y639318D01*
X1148080D02*
X1146048Y643382D01*
X1150112D01*
X1148080Y639318D01*
X1469390Y1375918D02*
X1467358Y1379982D01*
X1471422D01*
X1469390Y1375918D01*
X1494790D02*
X1492758Y1379982D01*
X1496822D01*
X1494790Y1375918D01*
X1520190D02*
X1518158Y1379982D01*
X1522222D01*
X1520190Y1375918D01*
X1545590D02*
X1543558Y1379982D01*
X1547622D01*
X1545590Y1375918D01*
X1583690D02*
X1581658Y1379982D01*
X1585722D01*
X1583690Y1375918D01*
X1609090D02*
X1607058Y1379982D01*
X1611122D01*
X1609090Y1375918D01*
X1736090D02*
X1734058Y1379982D01*
X1738122D01*
X1736090Y1375918D01*
X1415190Y1853918D02*
X1413158Y1857982D01*
X1417222D01*
X1415190Y1853918D01*
X1440590D02*
X1438558Y1857982D01*
X1442622D01*
X1440590Y1853918D01*
X1465990D02*
X1463958Y1857982D01*
X1468022D01*
X1465990Y1853918D01*
X1491390D02*
X1489358Y1857982D01*
X1493422D01*
X1491390Y1853918D01*
X1567590D02*
X1565558Y1857982D01*
X1569622D01*
X1567590Y1853918D01*
X1592990D02*
X1590958Y1857982D01*
X1595022D01*
X1592990Y1853918D01*
X1618390D02*
X1616358Y1857982D01*
X1620422D01*
X1618390Y1853918D01*
X971550Y1919478D02*
X969518Y1923542D01*
X973582D01*
X971550Y1919478D01*
X996950D02*
X994918Y1923542D01*
X998982D01*
X996950Y1919478D01*
X1022350D02*
X1020318Y1923542D01*
X1024382D01*
X1022350Y1919478D01*
X1047750D02*
X1045718Y1923542D01*
X1049782D01*
X1047750Y1919478D01*
X1073150D02*
X1071118Y1923542D01*
X1075182D01*
X1073150Y1919478D01*
X1098550D02*
X1096518Y1923542D01*
X1100582D01*
X1098550Y1919478D01*
X1123950D02*
X1121918Y1923542D01*
X1125982D01*
X1123950Y1919478D01*
X208280Y1854708D02*
X206248Y1858772D01*
X210312D01*
X208280Y1854708D01*
X335280D02*
X333248Y1858772D01*
X337312D01*
X335280Y1854708D01*
X360680D02*
X358648Y1858772D01*
X362712D01*
X360680Y1854708D01*
X398780D02*
X396748Y1858772D01*
X400812D01*
X398780Y1854708D01*
X424180D02*
X422148Y1858772D01*
X426212D01*
X424180Y1854708D01*
X449580D02*
X447548Y1858772D01*
X451612D01*
X449580Y1854708D01*
X474980D02*
X472948Y1858772D01*
X477012D01*
X474980Y1854708D01*
X325980Y1376708D02*
X323948Y1380772D01*
X328012D01*
X325980Y1376708D01*
X351380D02*
X349348Y1380772D01*
X353412D01*
X351380Y1376708D01*
X376780D02*
X374748Y1380772D01*
X378812D01*
X376780Y1376708D01*
X452980D02*
X450948Y1380772D01*
X455012D01*
X452980Y1376708D01*
X478380D02*
X476348Y1380772D01*
X480412D01*
X478380Y1376708D01*
X503780D02*
X501748Y1380772D01*
X505812D01*
X503780Y1376708D01*
X529180D02*
X527148Y1380772D01*
X531212D01*
X529180Y1376708D01*
X1223010Y963168D02*
X1220978Y967232D01*
X1225042D01*
X1223010Y963168D01*
Y988568D02*
X1220978Y992632D01*
X1225042D01*
X1223010Y988568D01*
Y1013968D02*
X1220978Y1018032D01*
X1225042D01*
X1223010Y1013968D01*
Y1039368D02*
X1220978Y1043432D01*
X1225042D01*
X1223010Y1039368D01*
Y1064768D02*
X1220978Y1068832D01*
X1225042D01*
X1223010Y1064768D01*
Y1090168D02*
X1220978Y1094232D01*
X1225042D01*
X1223010Y1090168D01*
Y1115568D02*
X1220978Y1119632D01*
X1225042D01*
X1223010Y1115568D01*
Y1140968D02*
X1220978Y1145032D01*
X1225042D01*
X1223010Y1140968D01*
Y1191768D02*
X1220978Y1195832D01*
X1225042D01*
X1223010Y1191768D01*
Y1217168D02*
X1220978Y1221232D01*
X1225042D01*
X1223010Y1217168D01*
Y1242568D02*
X1220978Y1246632D01*
X1225042D01*
X1223010Y1242568D01*
Y1267968D02*
X1220978Y1272032D01*
X1225042D01*
X1223010Y1267968D01*
Y1293368D02*
X1220978Y1297432D01*
X1225042D01*
X1223010Y1293368D01*
Y1318768D02*
X1220978Y1322832D01*
X1225042D01*
X1223010Y1318768D01*
Y1344168D02*
X1220978Y1348232D01*
X1225042D01*
X1223010Y1344168D01*
Y1369568D02*
X1220978Y1373632D01*
X1225042D01*
X1223010Y1369568D01*
Y1407668D02*
X1220978Y1411732D01*
X1225042D01*
X1223010Y1407668D01*
Y1433068D02*
X1220978Y1437132D01*
X1225042D01*
X1223010Y1433068D01*
Y1458468D02*
X1220978Y1462532D01*
X1225042D01*
X1223010Y1458468D01*
Y1483868D02*
X1220978Y1487932D01*
X1225042D01*
X1223010Y1483868D01*
Y1509268D02*
X1220978Y1513332D01*
X1225042D01*
X1223010Y1509268D01*
Y1534668D02*
X1220978Y1538732D01*
X1225042D01*
X1223010Y1534668D01*
Y1560068D02*
X1220978Y1564132D01*
X1225042D01*
X1223010Y1560068D01*
Y1585468D02*
X1220978Y1589532D01*
X1225042D01*
X1223010Y1585468D01*
X740410Y1496568D02*
X738378Y1500632D01*
X742442D01*
X740410Y1496568D01*
Y1471168D02*
X738378Y1475232D01*
X742442D01*
X740410Y1471168D01*
Y1445768D02*
X738378Y1449832D01*
X742442D01*
X740410Y1445768D01*
Y1420368D02*
X738378Y1424432D01*
X742442D01*
X740410Y1420368D01*
Y1394968D02*
X738378Y1399032D01*
X742442D01*
X740410Y1394968D01*
Y1369568D02*
X738378Y1373632D01*
X742442D01*
X740410Y1369568D01*
Y1318768D02*
X738378Y1322832D01*
X742442D01*
X740410Y1318768D01*
Y1293368D02*
X738378Y1297432D01*
X742442D01*
X740410Y1293368D01*
Y1267968D02*
X738378Y1272032D01*
X742442D01*
X740410Y1267968D01*
Y1242568D02*
X738378Y1246632D01*
X742442D01*
X740410Y1242568D01*
Y1217168D02*
X738378Y1221232D01*
X742442D01*
X740410Y1217168D01*
Y1191768D02*
X738378Y1195832D01*
X742442D01*
X740410Y1191768D01*
Y1166368D02*
X738378Y1170432D01*
X742442D01*
X740410Y1166368D01*
Y1140968D02*
X738378Y1145032D01*
X742442D01*
X740410Y1140968D01*
Y1090168D02*
X738378Y1094232D01*
X742442D01*
X740410Y1090168D01*
Y1064768D02*
X738378Y1068832D01*
X742442D01*
X740410Y1064768D01*
Y1039368D02*
X738378Y1043432D01*
X742442D01*
X740410Y1039368D01*
Y1013968D02*
X738378Y1018032D01*
X742442D01*
X740410Y1013968D01*
Y988568D02*
X738378Y992632D01*
X742442D01*
X740410Y988568D01*
Y963168D02*
X738378Y967232D01*
X742442D01*
X740410Y963168D01*
Y937768D02*
X738378Y941832D01*
X742442D01*
X740410Y937768D01*
Y912368D02*
X738378Y916432D01*
X742442D01*
X740410Y912368D01*
X994410Y861568D02*
X992378Y865632D01*
X996442D01*
X994410Y861568D01*
X969010D02*
X966978Y865632D01*
X971042D01*
X969010Y861568D01*
X943610D02*
X941578Y865632D01*
X945642D01*
X943610Y861568D01*
X918210D02*
X916178Y865632D01*
X920242D01*
X918210Y861568D01*
X892810D02*
X890778Y865632D01*
X894842D01*
X892810Y861568D01*
X867410D02*
X865378Y865632D01*
X869442D01*
X867410Y861568D01*
X842010D02*
X839978Y865632D01*
X844042D01*
X842010Y861568D01*
X816610D02*
X814578Y865632D01*
X818642D01*
X816610Y861568D01*
X791210D02*
X789178Y865632D01*
X793242D01*
X791210Y861568D01*
Y886968D02*
X789178Y891032D01*
X793242D01*
X791210Y886968D01*
X816610D02*
X814578Y891032D01*
X818642D01*
X816610Y886968D01*
X842010D02*
X839978Y891032D01*
X844042D01*
X842010Y886968D01*
X867410D02*
X865378Y891032D01*
X869442D01*
X867410Y886968D01*
X892810D02*
X890778Y891032D01*
X894842D01*
X892810Y886968D01*
X918210D02*
X916178Y891032D01*
X920242D01*
X918210Y886968D01*
X943610D02*
X941578Y891032D01*
X945642D01*
X943610Y886968D01*
X969010D02*
X966978Y891032D01*
X971042D01*
X969010Y886968D01*
X994410D02*
X992378Y891032D01*
X996442D01*
X994410Y886968D01*
X1019810D02*
X1017778Y891032D01*
X1021842D01*
X1019810Y886968D01*
Y861568D02*
X1017778Y865632D01*
X1021842D01*
X1019810Y861568D01*
X1045210D02*
X1043178Y865632D01*
X1047242D01*
X1045210Y861568D01*
Y886968D02*
X1043178Y891032D01*
X1047242D01*
X1045210Y886968D01*
X1070610D02*
X1068578Y891032D01*
X1072642D01*
X1070610Y886968D01*
Y861568D02*
X1068578Y865632D01*
X1072642D01*
X1070610Y861568D01*
X1096010D02*
X1093978Y865632D01*
X1098042D01*
X1096010Y861568D01*
Y886968D02*
X1093978Y891032D01*
X1098042D01*
X1096010Y886968D01*
X1121410D02*
X1119378Y891032D01*
X1123442D01*
X1121410Y886968D01*
Y861568D02*
X1119378Y865632D01*
X1123442D01*
X1121410Y861568D01*
X1146810D02*
X1144778Y865632D01*
X1148842D01*
X1146810Y861568D01*
Y886968D02*
X1144778Y891032D01*
X1148842D01*
X1146810Y886968D01*
X1172210D02*
X1170178Y891032D01*
X1174242D01*
X1172210Y886968D01*
Y861568D02*
X1170178Y865632D01*
X1174242D01*
X1172210Y861568D01*
X1197610D02*
X1195578Y865632D01*
X1199642D01*
X1197610Y861568D01*
Y886968D02*
X1195578Y891032D01*
X1199642D01*
X1197610Y886968D01*
X1223010D02*
X1220978Y891032D01*
X1225042D01*
X1223010Y886968D01*
Y861568D02*
X1220978Y865632D01*
X1225042D01*
X1223010Y861568D01*
X1841500Y1045718D02*
X1839468Y1049782D01*
X1843532D01*
X1841500Y1045718D01*
Y1020318D02*
X1839468Y1024382D01*
X1843532D01*
X1841500Y1020318D01*
Y994918D02*
X1839468Y998982D01*
X1843532D01*
X1841500Y994918D01*
Y969518D02*
X1839468Y973582D01*
X1843532D01*
X1841500Y969518D01*
Y944118D02*
X1839468Y948182D01*
X1843532D01*
X1841500Y944118D01*
Y918718D02*
X1839468Y922782D01*
X1843532D01*
X1841500Y918718D01*
Y893318D02*
X1839468Y897382D01*
X1843532D01*
X1841500Y893318D01*
Y867918D02*
X1839468Y871982D01*
X1843532D01*
X1841500Y867918D01*
X1931670Y344678D02*
X1929638Y348742D01*
X1933702D01*
X1931670Y344678D01*
X1906270D02*
X1904238Y348742D01*
X1908302D01*
X1906270Y344678D01*
X1880870D02*
X1878838Y348742D01*
X1882902D01*
X1880870Y344678D01*
X1855470D02*
X1853438Y348742D01*
X1857502D01*
X1855470Y344678D01*
X1830070D02*
X1828038Y348742D01*
X1832102D01*
X1830070Y344678D01*
X1804670D02*
X1802638Y348742D01*
X1806702D01*
X1804670Y344678D01*
X1779270D02*
X1777238Y348742D01*
X1781302D01*
X1779270Y344678D01*
X1753870D02*
X1751838Y348742D01*
X1755902D01*
X1753870Y344678D01*
X144780Y1180338D02*
X142748Y1184402D01*
X146812D01*
X144780Y1180338D01*
Y1154938D02*
X142748Y1159002D01*
X146812D01*
X144780Y1154938D01*
Y1129538D02*
X142748Y1133602D01*
X146812D01*
X144780Y1129538D01*
Y1104138D02*
X142748Y1108202D01*
X146812D01*
X144780Y1104138D01*
Y1078738D02*
X142748Y1082802D01*
X146812D01*
X144780Y1078738D01*
Y1053338D02*
X142748Y1057402D01*
X146812D01*
X144780Y1053338D01*
Y1027938D02*
X142748Y1032002D01*
X146812D01*
X144780Y1027938D01*
Y1002538D02*
X142748Y1006602D01*
X146812D01*
X144780Y1002538D01*
X888140Y635988D02*
X886108Y640052D01*
X890172D01*
X888140Y635988D01*
X862740D02*
X860708Y640052D01*
X864772D01*
X862740Y635988D01*
X837340D02*
X835308Y640052D01*
X839372D01*
X837340Y635988D01*
X811940D02*
X809908Y640052D01*
X813972D01*
X811940Y635988D01*
X773840D02*
X771808Y640052D01*
X775872D01*
X773840Y635988D01*
X748440D02*
X746408Y640052D01*
X750472D01*
X748440Y635988D01*
X621440D02*
X619408Y640052D01*
X623472D01*
X621440Y635988D01*
X739140Y157988D02*
X737108Y162052D01*
X741172D01*
X739140Y157988D01*
X764540D02*
X762508Y162052D01*
X766572D01*
X764540Y157988D01*
X789940D02*
X787908Y162052D01*
X791972D01*
X789940Y157988D01*
X866140D02*
X864108Y162052D01*
X868172D01*
X866140Y157988D01*
X891540D02*
X889508Y162052D01*
X893572D01*
X891540Y157988D01*
X916940D02*
X914908Y162052D01*
X918972D01*
X916940Y157988D01*
X942340D02*
X940308Y162052D01*
X944372D01*
X942340Y157988D01*
X1343660Y295148D02*
X1344676Y296164D01*
X1345692D01*
X1344676Y297180D01*
X1345692Y298196D01*
X1344676D01*
X1343660Y299212D01*
X1342644Y298196D01*
X1341628D01*
X1342644Y297180D01*
X1341628Y296164D01*
X1342644D01*
X1343660Y295148D01*
X1318260D02*
X1319276Y296164D01*
X1320292D01*
X1319276Y297180D01*
X1320292Y298196D01*
X1319276D01*
X1318260Y299212D01*
X1317244Y298196D01*
X1316228D01*
X1317244Y297180D01*
X1316228Y296164D01*
X1317244D01*
X1318260Y295148D01*
X1181100Y296418D02*
X1182116Y297434D01*
X1183132D01*
X1182116Y298450D01*
X1183132Y299466D01*
X1182116D01*
X1181100Y300482D01*
X1180084Y299466D01*
X1179068D01*
X1180084Y298450D01*
X1179068Y297434D01*
X1180084D01*
X1181100Y296418D01*
X1155700D02*
X1156716Y297434D01*
X1157732D01*
X1156716Y298450D01*
X1157732Y299466D01*
X1156716D01*
X1155700Y300482D01*
X1154684Y299466D01*
X1153668D01*
X1154684Y298450D01*
X1153668Y297434D01*
X1154684D01*
X1155700Y296418D01*
X1667158Y1853918D02*
X1668174Y1855950D01*
X1667158Y1857982D01*
X1669190Y1856966D01*
X1671222Y1857982D01*
X1670206Y1855950D01*
X1671222Y1853918D01*
X1669190Y1854934D01*
X1667158Y1853918D01*
X1708658Y1375918D02*
X1709674Y1377950D01*
X1708658Y1379982D01*
X1710690Y1378966D01*
X1712722Y1379982D01*
X1711706Y1377950D01*
X1712722Y1375918D01*
X1710690Y1376934D01*
X1708658Y1375918D01*
X1683258D02*
X1684274Y1377950D01*
X1683258Y1379982D01*
X1685290Y1378966D01*
X1687322Y1379982D01*
X1686306Y1377950D01*
X1687322Y1375918D01*
X1685290Y1376934D01*
X1683258Y1375918D01*
X1657858D02*
X1658874Y1377950D01*
X1657858Y1379982D01*
X1659890Y1378966D01*
X1661922Y1379982D01*
X1660906Y1377950D01*
X1661922Y1375918D01*
X1659890Y1376934D01*
X1657858Y1375918D01*
X1632458D02*
X1633474Y1377950D01*
X1632458Y1379982D01*
X1634490Y1378966D01*
X1636522Y1379982D01*
X1635506Y1377950D01*
X1636522Y1375918D01*
X1634490Y1376934D01*
X1632458Y1375918D01*
X1441958D02*
X1442974Y1377950D01*
X1441958Y1379982D01*
X1443990Y1378966D01*
X1446022Y1379982D01*
X1445006Y1377950D01*
X1446022Y1375918D01*
X1443990Y1376934D01*
X1441958Y1375918D01*
X1416558D02*
X1417574Y1377950D01*
X1416558Y1379982D01*
X1418590Y1378966D01*
X1420622Y1379982D01*
X1419606Y1377950D01*
X1420622Y1375918D01*
X1418590Y1376934D01*
X1416558Y1375918D01*
X1391158D02*
X1392174Y1377950D01*
X1391158Y1379982D01*
X1393190Y1378966D01*
X1395222Y1379982D01*
X1394206Y1377950D01*
X1395222Y1375918D01*
X1393190Y1376934D01*
X1391158Y1375918D01*
X1641758Y1853918D02*
X1642774Y1855950D01*
X1641758Y1857982D01*
X1643790Y1856966D01*
X1645822Y1857982D01*
X1644806Y1855950D01*
X1645822Y1853918D01*
X1643790Y1854934D01*
X1641758Y1853918D01*
X1540158D02*
X1541174Y1855950D01*
X1540158Y1857982D01*
X1542190Y1856966D01*
X1544222Y1857982D01*
X1543206Y1855950D01*
X1544222Y1853918D01*
X1542190Y1854934D01*
X1540158Y1853918D01*
X1387758D02*
X1388774Y1855950D01*
X1387758Y1857982D01*
X1389790Y1856966D01*
X1391822Y1857982D01*
X1390806Y1855950D01*
X1391822Y1853918D01*
X1389790Y1854934D01*
X1387758Y1853918D01*
X1362358D02*
X1363374Y1855950D01*
X1362358Y1857982D01*
X1364390Y1856966D01*
X1366422Y1857982D01*
X1365406Y1855950D01*
X1366422Y1853918D01*
X1364390Y1854934D01*
X1362358Y1853918D01*
X1759458Y1375918D02*
X1760474Y1377950D01*
X1759458Y1379982D01*
X1761490Y1378966D01*
X1763522Y1379982D01*
X1762506Y1377950D01*
X1763522Y1375918D01*
X1761490Y1376934D01*
X1759458Y1375918D01*
X1365758D02*
X1366774Y1377950D01*
X1365758Y1379982D01*
X1367790Y1378966D01*
X1369822Y1379982D01*
X1368806Y1377950D01*
X1369822Y1375918D01*
X1367790Y1376934D01*
X1365758Y1375918D01*
X273148Y1376708D02*
X274164Y1378740D01*
X273148Y1380772D01*
X275180Y1379756D01*
X277212Y1380772D01*
X276196Y1378740D01*
X277212Y1376708D01*
X275180Y1377724D01*
X273148Y1376708D01*
X231648Y1854708D02*
X232664Y1856740D01*
X231648Y1858772D01*
X233680Y1857756D01*
X235712Y1858772D01*
X234696Y1856740D01*
X235712Y1854708D01*
X233680Y1855724D01*
X231648Y1854708D01*
X257048D02*
X258064Y1856740D01*
X257048Y1858772D01*
X259080Y1857756D01*
X261112Y1858772D01*
X260096Y1856740D01*
X261112Y1854708D01*
X259080Y1855724D01*
X257048Y1854708D01*
X282448D02*
X283464Y1856740D01*
X282448Y1858772D01*
X284480Y1857756D01*
X286512Y1858772D01*
X285496Y1856740D01*
X286512Y1854708D01*
X284480Y1855724D01*
X282448Y1854708D01*
X307848D02*
X308864Y1856740D01*
X307848Y1858772D01*
X309880Y1857756D01*
X311912Y1858772D01*
X310896Y1856740D01*
X311912Y1854708D01*
X309880Y1855724D01*
X307848Y1854708D01*
X498348D02*
X499364Y1856740D01*
X498348Y1858772D01*
X500380Y1857756D01*
X502412Y1858772D01*
X501396Y1856740D01*
X502412Y1854708D01*
X500380Y1855724D01*
X498348Y1854708D01*
X523748D02*
X524764Y1856740D01*
X523748Y1858772D01*
X525780Y1857756D01*
X527812Y1858772D01*
X526796Y1856740D01*
X527812Y1854708D01*
X525780Y1855724D01*
X523748Y1854708D01*
X549148D02*
X550164Y1856740D01*
X549148Y1858772D01*
X551180Y1857756D01*
X553212Y1858772D01*
X552196Y1856740D01*
X553212Y1854708D01*
X551180Y1855724D01*
X549148Y1854708D01*
X298548Y1376708D02*
X299564Y1378740D01*
X298548Y1380772D01*
X300580Y1379756D01*
X302612Y1380772D01*
X301596Y1378740D01*
X302612Y1376708D01*
X300580Y1377724D01*
X298548Y1376708D01*
X400148D02*
X401164Y1378740D01*
X400148Y1380772D01*
X402180Y1379756D01*
X404212Y1380772D01*
X403196Y1378740D01*
X404212Y1376708D01*
X402180Y1377724D01*
X400148Y1376708D01*
X552548D02*
X553564Y1378740D01*
X552548Y1380772D01*
X554580Y1379756D01*
X556612Y1380772D01*
X555596Y1378740D01*
X556612Y1376708D01*
X554580Y1377724D01*
X552548Y1376708D01*
X577948D02*
X578964Y1378740D01*
X577948Y1380772D01*
X579980Y1379756D01*
X582012Y1380772D01*
X580996Y1378740D01*
X582012Y1376708D01*
X579980Y1377724D01*
X577948Y1376708D01*
X180848Y1854708D02*
X181864Y1856740D01*
X180848Y1858772D01*
X182880Y1857756D01*
X184912Y1858772D01*
X183896Y1856740D01*
X184912Y1854708D01*
X182880Y1855724D01*
X180848Y1854708D01*
X574548D02*
X575564Y1856740D01*
X574548Y1858772D01*
X576580Y1857756D01*
X578612Y1858772D01*
X577596Y1856740D01*
X578612Y1854708D01*
X576580Y1855724D01*
X574548Y1854708D01*
X686308Y157988D02*
X687324Y160020D01*
X686308Y162052D01*
X688340Y161036D01*
X690372Y162052D01*
X689356Y160020D01*
X690372Y157988D01*
X688340Y159004D01*
X686308Y157988D01*
X644808Y635988D02*
X645824Y638020D01*
X644808Y640052D01*
X646840Y639036D01*
X648872Y640052D01*
X647856Y638020D01*
X648872Y635988D01*
X646840Y637004D01*
X644808Y635988D01*
X670208D02*
X671224Y638020D01*
X670208Y640052D01*
X672240Y639036D01*
X674272Y640052D01*
X673256Y638020D01*
X674272Y635988D01*
X672240Y637004D01*
X670208Y635988D01*
X695608D02*
X696624Y638020D01*
X695608Y640052D01*
X697640Y639036D01*
X699672Y640052D01*
X698656Y638020D01*
X699672Y635988D01*
X697640Y637004D01*
X695608Y635988D01*
X721008D02*
X722024Y638020D01*
X721008Y640052D01*
X723040Y639036D01*
X725072Y640052D01*
X724056Y638020D01*
X725072Y635988D01*
X723040Y637004D01*
X721008Y635988D01*
X911508D02*
X912524Y638020D01*
X911508Y640052D01*
X913540Y639036D01*
X915572Y640052D01*
X914556Y638020D01*
X915572Y635988D01*
X913540Y637004D01*
X911508Y635988D01*
X936908D02*
X937924Y638020D01*
X936908Y640052D01*
X938940Y639036D01*
X940972Y640052D01*
X939956Y638020D01*
X940972Y635988D01*
X938940Y637004D01*
X936908Y635988D01*
X962308D02*
X963324Y638020D01*
X962308Y640052D01*
X964340Y639036D01*
X966372Y640052D01*
X965356Y638020D01*
X966372Y635988D01*
X964340Y637004D01*
X962308Y635988D01*
X711708Y157988D02*
X712724Y160020D01*
X711708Y162052D01*
X713740Y161036D01*
X715772Y162052D01*
X714756Y160020D01*
X715772Y157988D01*
X713740Y159004D01*
X711708Y157988D01*
X813308D02*
X814324Y160020D01*
X813308Y162052D01*
X815340Y161036D01*
X817372Y162052D01*
X816356Y160020D01*
X817372Y157988D01*
X815340Y159004D01*
X813308Y157988D01*
X965708D02*
X966724Y160020D01*
X965708Y162052D01*
X967740Y161036D01*
X969772Y162052D01*
X968756Y160020D01*
X969772Y157988D01*
X967740Y159004D01*
X965708Y157988D01*
X991108D02*
X992124Y160020D01*
X991108Y162052D01*
X993140Y161036D01*
X995172Y162052D01*
X994156Y160020D01*
X995172Y157988D01*
X993140Y159004D01*
X991108Y157988D01*
X594008Y635988D02*
X595024Y638020D01*
X594008Y640052D01*
X596040Y639036D01*
X598072Y640052D01*
X597056Y638020D01*
X598072Y635988D01*
X596040Y637004D01*
X594008Y635988D01*
X987708D02*
X988724Y638020D01*
X987708Y640052D01*
X989740Y639036D01*
X991772Y640052D01*
X990756Y638020D01*
X991772Y635988D01*
X989740Y637004D01*
X987708Y635988D01*
X781050Y1095248D02*
X779018Y1099312D01*
X783082D01*
X781050Y1095248D01*
X1736090Y1307338D02*
X1734058Y1311402D01*
X1738122D01*
X1736090Y1307338D01*
X276860Y1151128D02*
X274828Y1155192D01*
X278892D01*
X276860Y1151128D01*
X1422400Y720598D02*
X1420368Y724662D01*
X1424432D01*
X1422400Y720598D01*
X627380Y729488D02*
X625348Y733552D01*
X629412D01*
X627380Y729488D01*
X1143000Y1786128D02*
X1140968Y1790192D01*
X1145032D01*
X1143000Y1786128D01*
D51*
X783882Y1950250D02*
G03*
X783882Y1950250I-2032J0D01*
G01*
X52032D02*
G03*
X52032Y1950250I-2032J0D01*
G01*
M02*
