G04*
G04 #@! TF.GenerationSoftware,Altium Limited,Altium Designer,18.0.7 (293)*
G04*
G04 Layer_Physical_Order=2*
G04 Layer_Color=16711680*
%FSLAX44Y44*%
%MOMM*%
G71*
G01*
G75*
%ADD31C,0.5000*%
%ADD32C,11.0000*%
%ADD33C,6.0000*%
%ADD34R,1.5000X2.2500*%
%ADD35O,1.5000X2.2500*%
%ADD36O,1.5240X2.2500*%
%ADD37R,2.2500X1.5000*%
%ADD38O,2.2500X1.5000*%
%ADD39O,2.2500X1.4000*%
%ADD40O,2.0000X1.5000*%
%ADD41R,2.0000X1.5000*%
%ADD42R,1.5000X2.0000*%
%ADD43O,1.5000X2.0000*%
%ADD44O,1.2000X2.2500*%
%ADD45C,1.5000*%
%ADD46R,2.0000X2.0000*%
%ADD47C,2.0000*%
%ADD48C,1.7000*%
%ADD49C,2.2500*%
D31*
X816610Y807720D02*
Y863600D01*
X748440Y739550D02*
X816610Y807720D01*
X748440Y638020D02*
Y739550D01*
X842010Y807720D02*
Y863600D01*
X773840Y739550D02*
X842010Y807720D01*
X773840Y638020D02*
Y739550D01*
X867410Y795020D02*
Y863600D01*
X811940Y739550D02*
X867410Y795020D01*
X811940Y638020D02*
Y739550D01*
X1162050Y1383030D02*
X1169670Y1390650D01*
X1162050Y1358900D02*
Y1383030D01*
Y1358900D02*
X1174750Y1346200D01*
X1169670Y1390650D02*
X1340612D01*
X1174750Y1346200D02*
X1223010D01*
X1270000Y1452880D02*
Y1591310D01*
X1252220Y1435100D02*
X1270000Y1452880D01*
X1223010Y1435100D02*
X1252220D01*
X1134110Y1511300D02*
X1223010D01*
X981870Y1359060D02*
X1134110Y1511300D01*
X981870Y557690D02*
Y1359060D01*
X1111250Y1536700D02*
X1223010D01*
X956310Y1381760D02*
X1111250Y1536700D01*
X956310Y609600D02*
Y1381760D01*
X781050Y1093470D02*
X824230Y1050290D01*
X781050Y1093470D02*
Y1097280D01*
X824230Y896620D02*
Y1050290D01*
X816610Y889000D02*
X824230Y896620D01*
X842010Y889000D02*
X845270Y892476D01*
X841746Y1112520D02*
X845270Y892476D01*
X480060Y1112520D02*
X841746D01*
X867410Y889000D02*
X869919Y891678D01*
X866098Y1125220D02*
X869919Y891678D01*
X506730Y1125220D02*
X866098D01*
X918210Y1421130D02*
X918210Y889000D01*
X482600Y1856740D02*
X918210Y1421130D01*
X474980Y1856740D02*
X482600D01*
X562834Y1751360D02*
X892810Y1421384D01*
X504160Y1751360D02*
X562834D01*
X892810Y1421384D02*
X892810Y889000D01*
X1148080Y306070D02*
Y367030D01*
Y306070D02*
X1155700Y298450D01*
X1318260Y297180D02*
Y353060D01*
X1304290Y367030D02*
X1318260Y353060D01*
X1148080Y367030D02*
X1304290D01*
X1148080D02*
Y641350D01*
X1181100Y139700D02*
Y267970D01*
X1203960Y245110D02*
X1332230D01*
X1181100Y267970D02*
X1203960Y245110D01*
X1181100Y267970D02*
Y298450D01*
X1343660Y256540D02*
Y297180D01*
X1332230Y245110D02*
X1343660Y256540D01*
X270510Y1918970D02*
X384810D01*
X208280Y1856740D02*
X270510Y1918970D01*
X459704Y1889724D02*
X479686D01*
X450062Y1880082D02*
X459704Y1889724D01*
X450062Y1857222D02*
Y1880082D01*
X436764Y1897264D02*
X492876D01*
X424180Y1884680D02*
X436764Y1897264D01*
X424180Y1856740D02*
Y1884680D01*
X401320Y1905000D02*
X510755D01*
X384556Y1888236D02*
X401320Y1905000D01*
X384556Y1447164D02*
Y1888236D01*
X750160Y1619250D02*
X1242060D01*
X479686Y1889724D02*
X750160Y1619250D01*
X1415190Y1855950D02*
Y1902870D01*
X1452880Y1940560D01*
X1706880Y1940560D02*
X1975110Y1672330D01*
X1452880Y1940560D02*
X1706880Y1940560D01*
X1975110Y1392180D02*
Y1672330D01*
X1440590Y1891440D02*
X1440590Y1855950D01*
X1440590Y1891440D02*
X1465580Y1916430D01*
X1686560Y1916430D01*
X1936340Y1666650D01*
X764380Y980669D02*
Y1075461D01*
X761451Y977740D02*
X764380Y980669D01*
X760501Y1079340D02*
X764380Y1075461D01*
X201930Y1286899D02*
Y1850390D01*
X236220Y1356360D02*
Y1757680D01*
X335280Y1856740D01*
X236220Y1356360D02*
X480060Y1112520D01*
X201930Y1286899D02*
X252290Y1236540D01*
X201930Y1850390D02*
X208280Y1856740D01*
X252290Y1236540D02*
X409489Y1079340D01*
X144780Y1131570D02*
X249750Y1236540D01*
X252290D01*
X582930Y731520D02*
X627380D01*
X1736090Y1309370D02*
Y1377950D01*
X1143000Y1754058D02*
X1516498D01*
X661697D02*
X1143000D01*
Y1788160D01*
X510755Y1905000D02*
X661697Y1754058D01*
X1516498D02*
X1618390Y1855950D01*
X1098550Y1818640D02*
X1443170D01*
X653288D02*
X1098550D01*
Y1921510D01*
X1181100Y139700D02*
X1272540D01*
X886460D02*
X1181100D01*
X942340Y160020D02*
Y388620D01*
X916940Y160020D02*
Y375755D01*
X703580Y627380D02*
X942340Y388620D01*
X670560Y622135D02*
X916940Y375755D01*
X582930Y731520D02*
Y969010D01*
Y676530D02*
Y731520D01*
X670560Y622135D02*
Y631865D01*
X666700Y635725D02*
Y958411D01*
X673489Y965200D01*
X740410D01*
X666700Y635725D02*
X670560Y631865D01*
X1659890Y411480D02*
Y1076960D01*
X1975110Y1392180D01*
X1520190Y387350D02*
Y1014730D01*
X1623314Y1117854D02*
Y1848255D01*
X1560830Y1019810D02*
X1936340Y1395320D01*
X1560830Y344170D02*
Y1019810D01*
X1936340Y1395320D02*
Y1666650D01*
X1520190Y1014730D02*
X1623314Y1117854D01*
X740410Y1397000D02*
Y1422400D01*
X1209040Y722630D02*
X1422400D01*
X1080610Y851060D02*
X1209040Y722630D01*
X1058070Y858406D02*
Y859389D01*
X1055141Y862318D02*
X1058070Y859389D01*
X1065416Y851060D02*
X1080610D01*
X1046492Y862318D02*
X1055141D01*
X1045210Y863600D02*
X1046492Y862318D01*
X1058070Y858406D02*
X1065416Y851060D01*
X1343660Y297180D02*
Y410210D01*
X1224280Y529590D02*
X1343660Y410210D01*
X1224280Y529590D02*
Y641350D01*
X1155700Y298450D02*
X1157614Y296536D01*
Y292726D02*
Y296536D01*
X409489Y1079340D02*
X760501D01*
X591660Y977740D02*
X761451D01*
X287020Y1344930D02*
X506730Y1125220D01*
X276860Y148590D02*
Y1153160D01*
Y148590D02*
X358140Y67310D01*
X1750941D02*
X1753870Y70239D01*
X358140Y67310D02*
X1750941D01*
X1753870Y70239D02*
Y346710D01*
X379730Y129929D02*
X413139Y96520D01*
X1344930D01*
X1659890Y411480D01*
X1272540Y139700D02*
X1520190Y387350D01*
X1334770Y118110D02*
X1560830Y344170D01*
X447040Y118110D02*
X1334770D01*
X379730Y129929D02*
Y987671D01*
X408059Y1016000D01*
X888140Y640791D02*
X892810Y645461D01*
Y863600D01*
X888140Y638020D02*
Y640791D01*
X1443170Y1818640D02*
X1530280D01*
X374904Y1512018D02*
Y1907794D01*
X313320Y1412240D02*
Y1450435D01*
X478380Y1378740D02*
Y1456280D01*
X547370Y1525270D01*
X764151D01*
X768350Y1399540D01*
X740410Y1371600D02*
X768350Y1399540D01*
X384556Y1447164D02*
X452980Y1378740D01*
X1618390Y1853179D02*
Y1855950D01*
Y1853179D02*
X1623314Y1848255D01*
X866140Y160020D02*
X886460Y139700D01*
X1340612Y1390650D02*
X1379982Y1430020D01*
X1468120D01*
X1520190Y1377950D01*
X1121410Y889000D02*
X1158240Y925830D01*
X1302004D01*
X1583690Y1207516D01*
Y1377950D01*
X862740Y609190D02*
Y638020D01*
Y609190D02*
X873760Y598170D01*
X944880D01*
X956310Y609600D01*
X837340Y573630D02*
Y638020D01*
Y573630D02*
X872490Y538480D01*
X962660D01*
X981870Y557690D01*
X449580Y1856740D02*
X450062Y1857222D01*
X1242060Y1619250D02*
X1270000Y1591310D01*
X492876Y1897264D02*
X527860Y1862280D01*
X528075D01*
X716495Y1673860D01*
X1272151D01*
X1289931Y1656080D01*
Y1422400D02*
Y1656080D01*
X1277231Y1409700D02*
X1289931Y1422400D01*
X1223010Y1409700D02*
X1277231D01*
X287020Y1783080D02*
X360680Y1856740D01*
X287020Y1344930D02*
Y1783080D01*
X582930Y969010D02*
X591660Y977740D01*
X582930Y676530D02*
X621440Y638020D01*
X1736090Y1377950D02*
Y1802638D01*
X1645158Y1893570D02*
X1736090Y1802638D01*
X1469017Y1893570D02*
X1645158D01*
X1453330Y1877883D02*
X1469017Y1893570D01*
X1453330Y1828800D02*
Y1877883D01*
X1443170Y1818640D02*
X1453330Y1828800D01*
X552958Y1918970D02*
X653288Y1818640D01*
X374904Y1907794D02*
X386080Y1918970D01*
X491040Y1359720D02*
Y1414841D01*
X498599Y1422400D01*
X471170Y1339850D02*
X491040Y1359720D01*
X313320Y1450435D02*
X374904Y1512018D01*
X386080Y1918970D02*
X552958D01*
X1530280Y1818640D02*
X1567590Y1855950D01*
X351213Y1378907D02*
X351380Y1378740D01*
X351213Y1378907D02*
Y1412447D01*
X340730Y1422930D02*
X351213Y1412447D01*
X324011Y1422930D02*
X340730D01*
X313320Y1412240D02*
X324011Y1422930D01*
X313320Y1347859D02*
Y1412240D01*
Y1347859D02*
X321329Y1339850D01*
X471170D01*
X498599Y1422400D02*
X740410D01*
X447040Y990600D02*
X740410D01*
X435999Y979559D02*
X447040Y990600D01*
X435999Y129151D02*
Y979559D01*
Y129151D02*
X447040Y118110D01*
X408059Y1016000D02*
X740410D01*
X703580Y627380D02*
Y902970D01*
X740410Y939800D01*
X1545590Y1213104D02*
Y1377950D01*
X1274064Y941578D02*
X1545590Y1213104D01*
X1148588Y941578D02*
X1274064D01*
X1096010Y889000D02*
X1148588Y941578D01*
X1070610Y889000D02*
Y1064006D01*
X1173734Y1167130D01*
X1258570D01*
X1469390Y1377950D01*
X325980Y1378740D02*
X345820Y1358900D01*
X433140D01*
X452980Y1378740D01*
X478380D01*
X1596010Y1878330D02*
X1618390Y1855950D01*
X1513770Y1878330D02*
X1596010D01*
X1491390Y1855950D02*
X1513770Y1878330D01*
X1465990Y1855950D02*
X1491390D01*
X866140Y160020D02*
X891540D01*
X842010Y135890D02*
X866140Y160020D01*
X763270Y135890D02*
X842010D01*
X739140Y160020D02*
X763270Y135890D01*
X1223010Y1371600D02*
X1335278D01*
X1378458Y1414780D01*
X1457960D01*
X1494790Y1377950D01*
X1146810Y889000D02*
X1168400Y910590D01*
X1313434D01*
X1609090Y1206246D01*
Y1377950D01*
X398780Y1856740D02*
X504160Y1751360D01*
X1567590Y1855950D02*
X1592990D01*
X621440Y638020D02*
X764540Y494920D01*
Y160020D02*
Y494920D01*
Y160020D02*
X789940D01*
X351380Y1378740D02*
X376780D01*
X529180D02*
X637920Y1270000D01*
X740410D01*
X503780Y1378740D02*
X637920Y1244600D01*
X740410D01*
D32*
X1900250Y100000D02*
D03*
X100000D02*
D03*
D33*
X781850Y1950250D02*
D03*
X50000D02*
D03*
D34*
X1325880Y641350D02*
D03*
X1123950Y1921510D02*
D03*
X1931670Y346710D02*
D03*
D35*
X1300480Y641350D02*
D03*
X1275080D02*
D03*
X1249680D02*
D03*
X1224280D02*
D03*
X1198880D02*
D03*
X1173480D02*
D03*
X1148080D02*
D03*
X971550Y1921510D02*
D03*
X996950D02*
D03*
X1022350D02*
D03*
X1047750D02*
D03*
X1073150D02*
D03*
X1098550D02*
D03*
X994410Y863600D02*
D03*
X969010D02*
D03*
X943610D02*
D03*
X918210D02*
D03*
X892810D02*
D03*
X867410D02*
D03*
X842010D02*
D03*
X816610D02*
D03*
Y889000D02*
D03*
X842010D02*
D03*
X867410D02*
D03*
X892810D02*
D03*
X918210D02*
D03*
X943610D02*
D03*
X969010D02*
D03*
X994410D02*
D03*
X1906270Y346710D02*
D03*
X1880870D02*
D03*
X1855470D02*
D03*
X1830070D02*
D03*
X1804670D02*
D03*
X1779270D02*
D03*
X1753870D02*
D03*
D36*
X1469390Y1377950D02*
D03*
X1494790D02*
D03*
X1520190D02*
D03*
X1545590D02*
D03*
X1583690D02*
D03*
X1609090D02*
D03*
X1736090D02*
D03*
X1415190Y1855950D02*
D03*
X1440590D02*
D03*
X1465990D02*
D03*
X1491390D02*
D03*
X1567590D02*
D03*
X1592990D02*
D03*
X1618390D02*
D03*
X208280Y1856740D02*
D03*
X335280D02*
D03*
X360680D02*
D03*
X398780D02*
D03*
X424180D02*
D03*
X449580D02*
D03*
X474980D02*
D03*
X325980Y1378740D02*
D03*
X351380D02*
D03*
X376780D02*
D03*
X452980D02*
D03*
X478380D02*
D03*
X503780D02*
D03*
X529180D02*
D03*
X888140Y638020D02*
D03*
X862740D02*
D03*
X837340D02*
D03*
X811940D02*
D03*
X773840D02*
D03*
X748440D02*
D03*
X621440D02*
D03*
X739140Y160020D02*
D03*
X764540D02*
D03*
X789940D02*
D03*
X866140D02*
D03*
X891540D02*
D03*
X916940D02*
D03*
X942340D02*
D03*
D37*
X1223010Y965200D02*
D03*
Y1193800D02*
D03*
Y1409700D02*
D03*
X1841500Y1047750D02*
D03*
X144780Y1182370D02*
D03*
D38*
X1223010Y990600D02*
D03*
Y1016000D02*
D03*
Y1092200D02*
D03*
Y1117600D02*
D03*
Y1143000D02*
D03*
Y1219200D02*
D03*
Y1244600D02*
D03*
Y1270000D02*
D03*
Y1295400D02*
D03*
Y1320800D02*
D03*
Y1346200D02*
D03*
Y1371600D02*
D03*
Y1435100D02*
D03*
Y1460500D02*
D03*
Y1485900D02*
D03*
Y1511300D02*
D03*
Y1536700D02*
D03*
Y1562100D02*
D03*
Y1587500D02*
D03*
X1841500Y1022350D02*
D03*
Y996950D02*
D03*
Y971550D02*
D03*
Y946150D02*
D03*
Y920750D02*
D03*
Y895350D02*
D03*
Y869950D02*
D03*
X144780Y1156970D02*
D03*
Y1131570D02*
D03*
Y1106170D02*
D03*
Y1080770D02*
D03*
Y1055370D02*
D03*
Y1029970D02*
D03*
Y1004570D02*
D03*
D39*
X1223010Y1041400D02*
D03*
Y1066800D02*
D03*
D40*
X740410Y1498600D02*
D03*
Y1473200D02*
D03*
Y1447800D02*
D03*
Y1422400D02*
D03*
Y1397000D02*
D03*
Y1320800D02*
D03*
Y1295400D02*
D03*
Y1270000D02*
D03*
Y1244600D02*
D03*
Y1219200D02*
D03*
Y1193800D02*
D03*
Y1168400D02*
D03*
Y1092200D02*
D03*
Y1066800D02*
D03*
Y1041400D02*
D03*
Y1016000D02*
D03*
Y990600D02*
D03*
Y965200D02*
D03*
Y939800D02*
D03*
D41*
Y1371600D02*
D03*
Y1143000D02*
D03*
Y914400D02*
D03*
D42*
X791210Y863600D02*
D03*
D43*
Y889000D02*
D03*
X1045210Y863600D02*
D03*
Y889000D02*
D03*
D44*
X1019810D02*
D03*
Y863600D02*
D03*
D45*
X1070610Y889000D02*
D03*
Y863600D02*
D03*
X1096010D02*
D03*
Y889000D02*
D03*
X1121410D02*
D03*
Y863600D02*
D03*
X1146810D02*
D03*
Y889000D02*
D03*
X1172210D02*
D03*
Y863600D02*
D03*
X1197610D02*
D03*
Y889000D02*
D03*
X1223010D02*
D03*
Y863600D02*
D03*
D46*
X1343660Y297180D02*
D03*
X1181100Y298450D02*
D03*
D47*
X1318260Y297180D02*
D03*
X1155700Y298450D02*
D03*
D48*
X781050Y1097280D02*
D03*
D49*
X1736090Y1309370D02*
D03*
X276860Y1153160D02*
D03*
X1422400Y722630D02*
D03*
X627380Y731520D02*
D03*
X1143000Y1788160D02*
D03*
M02*
