G04*
G04 #@! TF.GenerationSoftware,Altium Limited,Altium Designer,18.0.7 (293)*
G04*
G04 Layer_Color=16711935*
%FSLAX44Y44*%
%MOMM*%
G71*
G01*
G75*
%ADD12C,11.2032*%
%ADD13C,6.2032*%
%ADD14R,1.7032X2.4532*%
%ADD15O,1.7032X2.4532*%
%ADD16O,1.7272X2.4532*%
%ADD17R,2.4532X1.7032*%
%ADD18O,2.4532X1.7032*%
%ADD19O,2.4532X1.6032*%
%ADD20O,2.2032X1.7032*%
%ADD21R,2.2032X1.7032*%
%ADD22R,1.7032X2.2032*%
%ADD23O,1.7032X2.2032*%
%ADD24O,1.4032X2.4532*%
%ADD25C,1.7032*%
%ADD26R,2.2032X2.2032*%
%ADD27C,2.2032*%
%ADD28C,0.2032*%
%ADD29C,1.9032*%
%ADD30C,2.4532*%
D12*
X1900250Y100000D02*
D03*
X100000D02*
D03*
D13*
X781850Y1950250D02*
D03*
X50000D02*
D03*
D14*
X1325880Y641350D02*
D03*
X1123950Y1921510D02*
D03*
X1931670Y346710D02*
D03*
D15*
X1300480Y641350D02*
D03*
X1275080D02*
D03*
X1249680D02*
D03*
X1224280D02*
D03*
X1198880D02*
D03*
X1173480D02*
D03*
X1148080D02*
D03*
X971550Y1921510D02*
D03*
X996950D02*
D03*
X1022350D02*
D03*
X1047750D02*
D03*
X1073150D02*
D03*
X1098550D02*
D03*
X994410Y863600D02*
D03*
X969010D02*
D03*
X943610D02*
D03*
X918210D02*
D03*
X892810D02*
D03*
X867410D02*
D03*
X842010D02*
D03*
X816610D02*
D03*
Y889000D02*
D03*
X842010D02*
D03*
X867410D02*
D03*
X892810D02*
D03*
X918210D02*
D03*
X943610D02*
D03*
X969010D02*
D03*
X994410D02*
D03*
X1906270Y346710D02*
D03*
X1880870D02*
D03*
X1855470D02*
D03*
X1830070D02*
D03*
X1804670D02*
D03*
X1779270D02*
D03*
X1753870D02*
D03*
D16*
X1469390Y1377950D02*
D03*
X1494790D02*
D03*
X1520190D02*
D03*
X1545590D02*
D03*
X1583690D02*
D03*
X1609090D02*
D03*
X1736090D02*
D03*
X1415190Y1855950D02*
D03*
X1440590D02*
D03*
X1465990D02*
D03*
X1491390D02*
D03*
X1567590D02*
D03*
X1592990D02*
D03*
X1618390D02*
D03*
X208280Y1856740D02*
D03*
X335280D02*
D03*
X360680D02*
D03*
X398780D02*
D03*
X424180D02*
D03*
X449580D02*
D03*
X474980D02*
D03*
X325980Y1378740D02*
D03*
X351380D02*
D03*
X376780D02*
D03*
X452980D02*
D03*
X478380D02*
D03*
X503780D02*
D03*
X529180D02*
D03*
X888140Y638020D02*
D03*
X862740D02*
D03*
X837340D02*
D03*
X811940D02*
D03*
X773840D02*
D03*
X748440D02*
D03*
X621440D02*
D03*
X739140Y160020D02*
D03*
X764540D02*
D03*
X789940D02*
D03*
X866140D02*
D03*
X891540D02*
D03*
X916940D02*
D03*
X942340D02*
D03*
D17*
X1223010Y965200D02*
D03*
Y1193800D02*
D03*
Y1409700D02*
D03*
X1841500Y1047750D02*
D03*
X144780Y1182370D02*
D03*
D18*
X1223010Y990600D02*
D03*
Y1016000D02*
D03*
Y1092200D02*
D03*
Y1117600D02*
D03*
Y1143000D02*
D03*
Y1219200D02*
D03*
Y1244600D02*
D03*
Y1270000D02*
D03*
Y1295400D02*
D03*
Y1320800D02*
D03*
Y1346200D02*
D03*
Y1371600D02*
D03*
Y1435100D02*
D03*
Y1460500D02*
D03*
Y1485900D02*
D03*
Y1511300D02*
D03*
Y1536700D02*
D03*
Y1562100D02*
D03*
Y1587500D02*
D03*
X1841500Y1022350D02*
D03*
Y996950D02*
D03*
Y971550D02*
D03*
Y946150D02*
D03*
Y920750D02*
D03*
Y895350D02*
D03*
Y869950D02*
D03*
X144780Y1156970D02*
D03*
Y1131570D02*
D03*
Y1106170D02*
D03*
Y1080770D02*
D03*
Y1055370D02*
D03*
Y1029970D02*
D03*
Y1004570D02*
D03*
D19*
X1223010Y1041400D02*
D03*
Y1066800D02*
D03*
D20*
X740410Y1498600D02*
D03*
Y1473200D02*
D03*
Y1447800D02*
D03*
Y1422400D02*
D03*
Y1397000D02*
D03*
Y1320800D02*
D03*
Y1295400D02*
D03*
Y1270000D02*
D03*
Y1244600D02*
D03*
Y1219200D02*
D03*
Y1193800D02*
D03*
Y1168400D02*
D03*
Y1092200D02*
D03*
Y1066800D02*
D03*
Y1041400D02*
D03*
Y1016000D02*
D03*
Y990600D02*
D03*
Y965200D02*
D03*
Y939800D02*
D03*
D21*
Y1371600D02*
D03*
Y1143000D02*
D03*
Y914400D02*
D03*
D22*
X791210Y863600D02*
D03*
D23*
Y889000D02*
D03*
X1045210Y863600D02*
D03*
Y889000D02*
D03*
D24*
X1019810D02*
D03*
Y863600D02*
D03*
D25*
X1070610Y889000D02*
D03*
Y863600D02*
D03*
X1096010D02*
D03*
Y889000D02*
D03*
X1121410D02*
D03*
Y863600D02*
D03*
X1146810D02*
D03*
Y889000D02*
D03*
X1172210D02*
D03*
Y863600D02*
D03*
X1197610D02*
D03*
Y889000D02*
D03*
X1223010D02*
D03*
Y863600D02*
D03*
D26*
X1343660Y297180D02*
D03*
X1181100Y298450D02*
D03*
D27*
X1318260Y297180D02*
D03*
X1155700Y298450D02*
D03*
D28*
X1669190Y1855950D02*
D03*
X1710690Y1377950D02*
D03*
X1685290D02*
D03*
X1659890D02*
D03*
X1634490D02*
D03*
X1443990D02*
D03*
X1418590D02*
D03*
X1393190D02*
D03*
X1643790Y1855950D02*
D03*
X1542190D02*
D03*
X1389790D02*
D03*
X1364390D02*
D03*
X1761490Y1377950D02*
D03*
X1367790D02*
D03*
X275180Y1378740D02*
D03*
X233680Y1856740D02*
D03*
X259080D02*
D03*
X284480D02*
D03*
X309880D02*
D03*
X500380D02*
D03*
X525780D02*
D03*
X551180D02*
D03*
X300580Y1378740D02*
D03*
X402180D02*
D03*
X554580D02*
D03*
X579980D02*
D03*
X182880Y1856740D02*
D03*
X576580D02*
D03*
X688340Y160020D02*
D03*
X646840Y638020D02*
D03*
X672240D02*
D03*
X697640D02*
D03*
X723040D02*
D03*
X913540D02*
D03*
X938940D02*
D03*
X964340D02*
D03*
X713740Y160020D02*
D03*
X815340D02*
D03*
X967740D02*
D03*
X993140D02*
D03*
X596040Y638020D02*
D03*
X989740D02*
D03*
D29*
X781050Y1097280D02*
D03*
D30*
X1736090Y1309370D02*
D03*
X276860Y1153160D02*
D03*
X1422400Y722630D02*
D03*
X627380Y731520D02*
D03*
X1143000Y1788160D02*
D03*
M02*
